<svg xmlns="http://www.w3.org/2000/svg" width="78" height="14" fill="none"><path fill="#758091" d="M12.54 5.163a.626.626 0 0 0-.542-.422L8.44 4.458 6.9 1.05a.623.623 0 0 0-1.137 0l-1.54 3.408-3.558.283a.624.624 0 0 0-.387 1.07l2.63 2.562-.93 4.027a.624.624 0 0 0 .955.66l3.398-2.266 3.399 2.265a.625.625 0 0 0 .947-.69L9.535 8.375l2.831-2.547a.625.625 0 0 0 .174-.665ZM28.863 5.163a.624.624 0 0 0-.541-.422l-3.559-.283-1.54-3.408a.623.623 0 0 0-1.137 0l-1.54 3.408-3.558.283a.624.624 0 0 0-.386 1.07l2.63 2.562-.93 4.027a.625.625 0 0 0 .954.66l3.399-2.266 3.398 2.265a.625.625 0 0 0 .947-.69L25.86 8.375l2.83-2.547a.625.625 0 0 0 .174-.665ZM45.187 5.163a.624.624 0 0 0-.542-.422l-3.558-.283-1.54-3.408a.622.622 0 0 0-1.137 0l-1.54 3.408-3.558.283a.624.624 0 0 0-.386 1.07l2.629 2.562-.93 4.027a.624.624 0 0 0 .955.66l3.398-2.266 3.399 2.265a.625.625 0 0 0 .947-.69l-1.142-3.994 2.831-2.547a.625.625 0 0 0 .174-.665ZM61.51 5.163a.625.625 0 0 0-.541-.422l-3.559-.283-1.54-3.408a.623.623 0 0 0-1.137 0l-1.54 3.408-3.558.283a.624.624 0 0 0-.386 1.07l2.63 2.562-.93 4.027a.623.623 0 0 0 .955.66l3.398-2.266 3.398 2.265a.625.625 0 0 0 .947-.69l-1.141-3.994 2.83-2.547a.625.625 0 0 0 .174-.665ZM77.834 5.163a.624.624 0 0 0-.542-.422l-3.558-.283-1.54-3.408a.622.622 0 0 0-1.137 0l-1.54 3.408-3.558.283a.624.624 0 0 0-.386 1.07l2.63 2.562-.93 4.027a.624.624 0 0 0 .954.66l3.398-2.266 3.399 2.265a.625.625 0 0 0 .947-.69l-1.142-3.994 2.831-2.547a.625.625 0 0 0 .174-.665Z"/></svg>